<svg xmlns="http://www.w3.org/2000/svg" viewBox="0 0 26 26" id="Make"><path style="line-height:normal;text-indent:0;text-align:start;text-decoration-line:none;text-transform:none;block-progression:tb" d="M13 0C5.826 0 0 5.826 0 13s5.826 13 13 13 13-5.826 13-13S20.174 0 13 0zm0 1c6.633 0 12 5.367 12 12s-5.367 12-12 12S1 19.633 1 13 6.367 1 13 1zm3 4v2.06A9.994 9.994 0 0 0 7.06 16H5v5h5v-5H8.064A8.984 8.984 0 0 1 16 8.064V10h5V5h-5z" color="#000" font-family="sans-serif" font-weight="400" overflow="visible" fill="#ff8906" class="color000000 svgShape"></path></svg>