<svg enable-background="new 0 0 128 128" viewBox="0 0 128 128" xmlns="http://www.w3.org/2000/svg"><path d="m98.3 72.1c-4.2 0-7.7 3.4-7.7 7.7v2.9c0 4.2-3.4 7.5-7.5 7.5h-38.2c-4.2 0-7.5-3.4-7.5-7.5v-37c0-4.2 3.4-7.5 7.5-7.5h38.1 2.5.1c1.9.5 3 1.6 3.6 3 .7 1.6 1.2 3.9-1.4 6.1l-21.9 15.9-6.7-8.5c-2.6-3.3-7.4-4-10.8-1.4-3.3 2.6-4 7.4-1.4 10.8l11.2 14.5c2.5 3.3 7.2 4 10.6 1.5l25.4-18.6c.3-.2 3.6-2.8 3.9-3.1 7.6-6.8 9.2-15.6 6.1-23.3-3.2-7.8-11.4-12.7-21.3-12.7h-38c-12.6 0-22.9 10.3-22.9 22.9v37.3c0 12.6 10.3 22.9 22.9 22.9h38.2c12.6 0 22.9-10.2 22.9-22.9v-2.9c0-4.2-3.4-7.6-7.7-7.6zm-3.2-33.1c-.2-.1-.3-.1-.5-.2.2.1.3.1.5.2z" fill="#54b848"/></svg>