<svg width="394" height="220" viewBox="0 0 394 220" fill="none" xmlns="http://www.w3.org/2000/svg">
<path d="M273.27 96.9403C256.632 81.1519 228.698 70.8286 197 70.8286C165.302 70.8286 137.368 81.1519 120.729 96.9403H104.577V130.825C104.577 163.981 145.991 190.821 197 190.821C248.009 190.821 289.423 163.981 289.423 130.825V96.9403H273.27Z" fill="#FFC010" stroke="#001E2B" stroke-width="0.75" stroke-miterlimit="10"/>
<path d="M197 70.8286C192.506 70.8286 188.012 71.0715 183.762 71.4359V190.092C188.134 190.457 192.506 190.7 197 190.7C248.009 190.7 289.423 163.859 289.423 130.703V96.9403H273.27C256.632 81.1519 228.698 70.8286 197 70.8286Z" fill="#001E2B" stroke="#001E2B" stroke-width="0.75" stroke-miterlimit="10"/>
<path d="M197 156.936C248.044 156.936 289.423 130.075 289.423 96.9401C289.423 63.8051 248.044 36.9438 197 36.9438C145.956 36.9438 104.577 63.8051 104.577 96.9401C104.577 130.075 145.956 156.936 197 156.936Z" fill="#FFC010" stroke="#001E2B" stroke-width="0.75" stroke-miterlimit="10"/>
<path d="M197 36.9438C193.964 36.9438 190.928 37.0653 187.891 37.1867C234.65 40.1015 271.206 65.7275 271.206 96.8186C271.206 127.91 234.65 153.536 187.891 156.451C190.928 156.693 193.842 156.693 197 156.693C248.009 156.693 289.423 129.853 289.423 96.6972C289.423 63.7843 248.009 36.9438 197 36.9438Z" fill="#001E2B" stroke="#001E2B" stroke-width="0.75" stroke-miterlimit="10"/>
<path d="M271.327 96.9402C271.327 121.594 238.05 141.634 197 141.634C155.95 141.634 122.673 121.594 122.673 96.9402C122.673 72.2859 140.769 29.1711 197 29.1711C253.231 29.1711 271.327 72.2859 271.327 96.9402Z" fill="#FFE212" stroke="#001E2B" stroke-width="0.75" stroke-miterlimit="10"/>
<path d="M197 141.634C238.05 141.634 271.327 121.624 271.327 96.9401C271.327 72.2566 238.05 52.2466 197 52.2466C155.95 52.2466 122.673 72.2566 122.673 96.9401C122.673 121.624 155.95 141.634 197 141.634Z" stroke="#001E2B" stroke-miterlimit="10" stroke-dasharray="2 2"/>
<path d="M197 88.9243L250.924 100.098L197 111.271L143.076 100.098L197 88.9243Z" fill="#001E2B" stroke="#001E2B" stroke-width="0.75" stroke-miterlimit="10"/>
<path d="M241.329 66.335L231.856 72.7718" stroke="#001E2B" stroke-width="0.75" stroke-miterlimit="10"/>
<path d="M162.144 119.895L152.671 126.21" stroke="#001E2B" stroke-width="0.75" stroke-miterlimit="10"/>
<path d="M241.329 126.21L231.856 119.895" stroke="#001E2B" stroke-width="0.75" stroke-miterlimit="10"/>
<path d="M162.144 72.7718L152.671 66.335" stroke="#001E2B" stroke-width="0.75" stroke-miterlimit="10"/>
<path d="M197 81.0303L250.924 92.0822L197 103.256L143.076 92.0822L197 81.0303Z" fill="#00ED64" stroke="#001E2B" stroke-width="0.75" stroke-miterlimit="10" stroke-linejoin="round"/>
<path d="M197 96.8185C201.159 96.8185 204.53 94.6979 204.53 92.082C204.53 89.4661 201.159 87.3455 197 87.3455C192.841 87.3455 189.47 89.4661 189.47 92.082C189.47 94.6979 192.841 96.8185 197 96.8185Z" fill="#001E2B" stroke="#001E2B" stroke-width="0.75" stroke-miterlimit="10"/>
<path d="M206.837 29.5356C230.034 46.4172 245.094 74.2292 245.094 105.685C245.094 115.158 243.758 124.267 241.208 132.768C259.425 124.631 271.206 111.636 271.206 96.9403C271.327 73.7434 255.417 34.2722 206.837 29.5356Z" stroke="#001E2B" stroke-miterlimit="10" stroke-dasharray="2 2"/>
<path d="M195.421 129.61H196.514C196.514 129.974 196.757 130.339 197.121 130.582C197.486 130.825 197.85 130.946 198.336 130.946C198.822 130.946 199.186 130.825 199.429 130.582C199.672 130.339 199.915 130.096 199.915 129.732C199.915 129.124 199.55 128.638 198.7 128.396L197.607 128.031C197 127.788 196.514 127.545 196.15 127.181C195.785 126.817 195.664 126.331 195.664 125.724C195.664 125.116 195.907 124.509 196.393 124.145C196.879 123.78 197.486 123.538 198.214 123.538C198.943 123.538 199.55 123.78 200.036 124.145C200.522 124.631 200.765 125.116 200.765 125.724H199.672C199.55 125.359 199.429 124.995 199.065 124.874C198.822 124.631 198.457 124.631 198.093 124.631C197.729 124.631 197.364 124.752 197.121 124.874C196.879 125.116 196.757 125.359 196.757 125.724C196.757 126.088 196.879 126.331 197 126.574C197.243 126.817 197.486 126.938 197.85 127.06L198.943 127.424C200.279 127.91 200.886 128.638 200.886 129.853C200.886 130.582 200.643 131.067 200.158 131.432C199.672 131.796 199.065 132.039 198.336 132.039C197.486 132.039 196.879 131.796 196.271 131.31C195.785 130.703 195.421 130.217 195.421 129.61Z" fill="black"/>
<path d="M201.615 66.2133H200.644L195.664 59.8979V66.2133H194.571V58.0762H195.543L200.522 64.3916V58.0762H201.615V66.2133Z" fill="black"/>
</svg>
